<svg width="68" height="46" viewBox="0 0 68 46" fill="none" xmlns="http://www.w3.org/2000/svg">
<g clip-path="url(#clip0_1747_3803)">
<path d="M62.3787 45.8805C59.2647 45.8805 57.4177 44.2869 57.2764 41.9916H60.254C60.254 42.7567 60.6779 43.7752 62.5201 43.8386C63.7969 43.8386 64.5035 43.0735 64.5035 42.4984C64.3622 41.6066 63.2267 41.5432 62.0961 41.3483C60.8193 41.1631 59.83 40.9048 59.1185 40.5881C58.1292 40.0764 57.559 38.9896 57.559 37.8444C57.559 35.8025 59.2647 34.2089 62.2374 34.2089C65.0737 34.2089 66.9158 35.6758 67.0523 37.9077H64.2209C64.2209 37.3376 64.0795 36.3775 62.3787 36.3775C61.2433 36.3775 60.5366 36.5676 60.3953 37.396C60.3953 38.5461 62.8027 38.4828 64.6448 38.9263C66.3456 39.3746 67.4811 40.4565 67.4811 41.9916C67.4811 44.7986 65.215 45.8805 62.3787 45.8805" fill="black"/>
<path d="M8.12012 27.0477L17.896 21.3703L23.1397 30.3665H9.96223" fill="black"/>
<path d="M3.58265 40.0325C3.58265 41.8162 5.14212 43.283 6.83803 43.283C8.68502 43.283 10.0983 41.8162 10.0983 40.0325C10.0983 38.3123 8.68502 36.782 6.83803 36.782C5.14212 36.782 3.58265 38.3123 3.58265 40.0325V40.0325ZM6.6967 45.9C3.58265 45.9 0.892578 43.283 0.892578 40.0325C0.892578 36.782 3.58265 34.2284 6.6967 34.2284C7.97351 34.2284 9.109 34.5501 10.0983 35.2469V34.3551H12.9346V45.6417H10.0983V44.94C9.25033 45.5784 7.97351 45.9 6.6967 45.9" fill="black"/>
<path fill-rule="evenodd" clip-rule="evenodd" d="M27.2163 34.1871V45.542H30.138V34.1871H27.2163Z" fill="black"/>
<path d="M44.5344 30.3639L30.9331 6.64074L40.7089 0.900012L57.7118 30.3639" fill="black"/>
<path d="M19.5977 16.9079L29.5149 11.2987L40.4262 30.3631H30.0802V33.1702H27.2488V30.3631" fill="black"/>
<path d="M16.6188 40.0325C16.6188 41.8162 18.0369 43.283 19.879 43.283C21.575 43.283 23.1393 41.8162 23.1393 40.0325C23.1393 38.3123 21.575 36.782 19.879 36.782C18.0369 36.782 16.6188 38.3123 16.6188 40.0325ZM19.7377 45.9C16.4775 45.9 13.9287 43.283 13.9287 40.0325C13.9287 36.782 16.4775 34.2284 19.7377 34.2284C21.0096 34.2284 22.1451 34.5501 23.1393 35.2469V30.4662H25.9707V45.6417H23.1393V44.94C22.1451 45.5784 21.0096 45.9 19.7377 45.9" fill="black"/>
<path d="M65.6437 33.2587C64.9322 33.2587 64.2256 32.6203 64.2256 31.8552C64.2256 31.09 64.9322 30.4516 65.6437 30.4516C66.4917 30.4516 67.0619 31.09 67.0619 31.8552C67.0619 32.6203 66.4917 33.2587 65.6437 33.2587ZM65.6437 30.6466C64.9322 30.6466 64.5082 31.2167 64.5082 31.8552C64.5082 32.4936 64.9322 33.0686 65.6437 33.0686C66.3504 33.0686 66.7743 32.4936 66.7743 31.8552C66.7743 31.2167 66.3504 30.6466 65.6437 30.6466Z" fill="black"/>
<path d="M65.9365 32.6252L65.6538 31.9868H65.3712V32.6252H65.1567V31.095H65.7951C65.9365 31.095 66.2191 31.29 66.2191 31.5434C66.2191 31.7968 66.0778 31.9235 65.9365 31.9868L66.2191 32.6252H65.9365ZM65.6538 31.29H65.3712V31.7968H65.6538C65.9365 31.7968 65.9365 31.7334 65.9365 31.5434C65.9365 31.4118 65.9365 31.29 65.6538 31.29" fill="black"/>
<path d="M46.9303 40.0325C46.9303 41.8162 48.3484 43.283 50.1906 43.283C51.8914 43.283 53.4459 41.8162 53.4459 40.0325C53.4459 38.3123 51.8914 36.782 50.1906 36.782C48.3484 36.782 46.9303 38.3123 46.9303 40.0325V40.0325ZM50.0444 45.9C46.789 45.9 44.2402 43.283 44.2402 40.0325C44.2402 36.782 46.789 34.2284 50.0444 34.2284C51.3212 34.2284 52.4567 34.5501 53.4459 35.2469V34.3551H56.1409V45.6417H53.4459V44.94C52.4567 45.5784 51.3212 45.9 50.0444 45.9" fill="black"/>
<path d="M33.9044 40.0325C33.9044 41.8162 35.4639 43.283 37.1647 43.283C39.0068 43.283 40.4249 41.8162 40.4249 40.0325C40.4249 38.3123 39.0068 36.782 37.1647 36.782C35.4639 36.782 33.9044 38.3123 33.9044 40.0325ZM40.4249 30.4662H43.2563V45.6417H40.4249V44.94C39.5721 45.5784 38.4366 45.9 37.1647 45.9C33.9044 45.9 31.2144 43.283 31.2144 40.0325C31.2144 36.782 33.9044 34.2284 37.1647 34.2284C38.4366 34.2284 39.5721 34.5501 40.4249 35.2469V30.4662Z" fill="black"/>
</g>
<defs>
<clipPath id="clip0_1747_3803">
<rect width="66.5886" height="45" fill="white" transform="translate(0.892578 0.900024)"/>
</clipPath>
</defs>
</svg>
