<svg width="113" height="46" viewBox="0 0 113 46" fill="none" xmlns="http://www.w3.org/2000/svg">
<g clip-path="url(#clip0_1747_3809)">
<path d="M15.0039 10.7179C7.08239 10.7179 0.481445 14.0786 0.481445 24.2176C0.481445 32.2499 4.9201 37.3082 15.2084 37.3082C27.3182 37.3082 28.0945 29.3311 28.0945 29.3311H22.2267C22.2267 29.3311 20.9686 33.6265 14.8504 33.6265C9.86737 33.6265 6.28335 30.2603 6.28335 25.542H28.7081V22.5813C28.7081 17.9135 25.7449 10.7179 15.0039 10.7179V10.7179ZM14.7993 14.5019C19.5427 14.5019 22.7764 17.4078 22.7764 21.7631H6.41313C6.41313 17.1394 10.634 14.5019 14.7993 14.5019V14.5019Z" fill="#E53238"/>
<path d="M28.704 0.900024V32.2165C28.704 33.9942 28.5771 36.4902 28.5771 36.4902H34.1738C34.1738 36.4902 34.3746 34.6975 34.3746 33.0592C34.3746 33.0592 37.1397 37.385 44.6582 37.385C52.5755 37.385 57.9534 31.8883 57.9534 24.0132C57.9534 16.687 53.0136 10.7947 44.671 10.7947C36.8587 10.7947 34.4312 15.0134 34.4312 15.0134V0.900024H28.704ZM43.2264 14.6682C48.6029 14.6682 52.0217 18.6584 52.0217 24.0132C52.0217 29.7551 48.0731 33.5115 43.2648 33.5115C37.5265 33.5115 34.4312 29.0311 34.4312 24.0643C34.4312 19.4362 37.2087 14.6682 43.2264 14.6682Z" fill="#0064D2"/>
<path d="M71.8623 10.7179C59.945 10.7179 59.1807 17.2432 59.1807 18.2859H65.1124C65.1124 18.2859 65.4235 14.4763 71.4532 14.4763C75.3714 14.4763 78.4076 16.2698 78.4076 19.7177V20.9449H71.4532C62.2207 20.9449 57.3398 23.6458 57.3398 29.1266C57.3398 34.5205 61.8496 37.4552 67.944 37.4552C76.2497 37.4552 78.9253 32.8658 78.9253 32.8658C78.9253 34.6913 79.066 36.4901 79.066 36.4901H84.3393C84.3393 36.4901 84.1347 34.2604 84.1347 32.8339V20.5039C84.1347 12.4193 77.6136 10.7179 71.8623 10.7179V10.7179ZM78.4076 24.6267V26.263C78.4076 28.3972 77.0906 33.7032 69.3375 33.7032C65.0919 33.7032 63.2715 31.5843 63.2715 29.1266C63.2715 24.6555 69.4016 24.6267 78.4076 24.6267V24.6267Z" fill="#F5AF02"/>
<path d="M80.9404 11.7417H87.6136L97.1905 30.9284L106.745 11.7417H112.79L95.3861 45.9H89.0454L94.0676 36.3779L80.9404 11.7417Z" fill="#86B817"/>
</g>
<defs>
<clipPath id="clip0_1747_3809">
<rect width="112.309" height="45" fill="white" transform="translate(0.481445 0.900024)"/>
</clipPath>
</defs>
</svg>
