<svg width="116" height="36" viewBox="0 0 116 36" fill="none" xmlns="http://www.w3.org/2000/svg">
<path d="M95.8849 13.2324L100.61 18.4403L105.16 13.2324H114.874L105.38 23.9084L115.004 34.6716H104.898L100.217 29.4225L95.5786 34.6716H85.8198L95.3597 23.9528L85.8198 13.2324H95.8849Z" fill="#FF5900"/>
<path d="M85.8195 13.2326V20.4763H75.015V27.1234H85.8195V34.6718H67.0747V0.900024H85.8195V8.42779H75.015V13.2326H85.8195Z" fill="#FF5900"/>
<path d="M59.1685 0.900024V14.721H59.0812C57.3294 12.709 55.1427 12.0092 52.6055 12.0092C47.4071 12.0092 43.4909 15.5446 42.1167 20.2161C40.5474 15.0685 36.5042 11.9124 30.5093 11.9124C25.641 11.9124 21.7962 14.0974 19.7905 17.6582V13.2326H9.727V8.42779H20.7092V0.900024H0.756836V34.6718H9.727V20.4764H18.6686C18.402 21.5189 18.2592 22.636 18.2592 23.815C18.2592 30.8588 23.6416 35.8032 30.5093 35.8032C36.2852 35.8032 40.092 33.0914 42.104 28.1485H34.416C33.3766 29.6353 32.588 30.0749 30.5093 30.0749C28.099 30.0749 26.0202 27.9724 26.0202 25.4795H41.674C42.3532 31.0746 46.7121 35.9 52.6927 35.9C55.2729 35.9 57.6356 34.6306 59.0796 32.4884H59.1669V34.675H67.0739V0.900024H59.1685ZM26.271 20.5763C26.7692 18.431 28.4338 17.0298 30.5109 17.0298C32.7975 17.0298 34.3763 18.3881 34.7921 20.5763C34.9666 20.5763 26.271 20.5763 26.271 20.5763ZM54.3684 29.5306C51.4534 29.5306 49.6413 26.814 49.6413 23.9784C49.6413 20.9476 51.217 18.0327 54.3684 18.0327C57.6356 18.0327 58.9368 20.9476 58.9368 23.9784C58.9368 26.8521 57.5579 29.5306 54.3684 29.5306Z" fill="#2A007C"/>
</svg>
