<?xml version="1.0" encoding="UTF-8"?>
<svg width="150px" height="32px" viewBox="0 0 150 32" version="1.1" xmlns="http://www.w3.org/2000/svg" xmlns:xlink="http://www.w3.org/1999/xlink">
    <title>microsoft</title>
    <g id="ðŸ-Logos" stroke="none" stroke-width="1" fill="none" fill-rule="evenodd">
        <g id="microsoft" fill-rule="nonzero">
            <path d="M53.010279,18.5938133 L52.1119829,21.1187842 L52.0613482,21.1187842 C51.8231779,20.2714785 51.5390613,19.4382946 51.2099361,18.6220568 L46.4015204,6.51029319 L41.7,6.51029319 L41.7,25.765785 L44.800903,25.765785 L44.800903,13.928925 C44.800903,13.1974177 44.7859002,12.3152784 44.7540191,11.3041603 C44.7390163,10.793894 44.6808802,10.3834215 44.6658773,10.0708599 L44.7343279,10.0708599 C44.8918579,10.7976598 45.0559516,11.3502914 45.1750368,11.7193401 L50.9398847,25.765785 L53.1096729,25.765785 L58.8332629,11.5922442 C58.9626626,11.2693266 59.1005013,10.6394961 59.2270879,10.0718013 L59.2946008,10.0718013 C59.2195865,11.4745629 59.1558243,12.7568188 59.1483229,13.5297498 L59.1483229,25.765785 L62.4564529,25.765785 L62.4564529,6.51029319 L57.9415306,6.51029319 L53.0112166,18.5938133 L53.010279,18.5938133 Z M65.5695458,25.765785 L68.8026615,25.765785 L68.8026615,11.9669416 L65.5695458,11.9669416 L65.5695458,25.765785 L65.5695458,25.765785 Z M67.2198601,6.10264503 C66.686321,6.10264503 66.2231078,6.28528647 65.8414726,6.6439792 C65.464943,6.99137715 65.2552445,7.48447082 65.2657379,7.99778535 C65.2657379,8.52688066 65.4570244,8.97312831 65.8349088,9.32617233 C66.2127933,9.676392 66.6788195,9.85432619 67.2198601,9.85432619 C67.7334872,9.86426307 68.231177,9.67510845 68.6094997,9.32617233 C68.9930103,8.97312831 69.1880474,8.52688066 69.1880474,7.9987268 C69.1880474,7.47998745 68.9986363,7.029974 68.6254403,6.65998386 C68.2522442,6.28999372 67.7796542,6.10264503 67.2189224,6.10264503 M80.2479662,11.8285484 C79.6540566,11.7027569 79.0489697,11.637778 78.4419973,11.6346095 C76.9585898,11.6346095 75.6355253,11.9528199 74.5093733,12.5835919 C73.3990086,13.196397 72.4964544,14.1284824 71.9176297,15.2601363 C71.3259546,16.402116 71.0258974,17.7361517 71.0258974,19.2245853 C71.0258974,20.529436 71.3175155,21.7250785 71.8923124,22.7804447 C72.446322,23.8157606 73.2863954,24.6683674 74.3115231,25.2357482 C75.3401565,25.8081503 76.529133,26.0981171 77.8456337,26.0981171 C79.3815512,26.0981171 80.6943012,25.7902627 81.7463766,25.1820855 L81.7876344,25.1576078 L81.7876344,22.183565 L81.651671,22.2833587 C81.1680679,22.6352411 80.6353416,22.913462 80.0707449,23.109011 C79.498761,23.30954 78.9783494,23.4121582 78.5216999,23.4121582 C77.2530208,23.4121582 76.2337642,23.0129831 75.4948735,22.2278131 C74.7541074,21.4407603 74.379036,20.3364386 74.379036,18.9468573 C74.379036,17.5469201 74.770048,16.4143549 75.5417574,15.5783466 C76.3115915,14.7432798 77.3327235,14.3205685 78.5742099,14.3205685 C79.6375374,14.3205685 80.6727346,14.6820855 81.651671,15.3957052 L81.7876344,15.495499 L81.7876344,12.3614095 L81.7445012,12.3359903 C81.3759935,12.1288712 80.8724601,11.95941 80.2479662,11.8285484 M90.8999948,11.7268717 C90.0889028,11.7268717 89.3622019,11.9895364 88.7395834,12.5054514 C88.1919791,12.9582892 87.7972164,13.5796467 87.4943462,14.3563436 L87.4605898,14.3563436 L87.4605898,11.9669416 L84.2293494,11.9669416 L84.2293494,25.765785 L87.4615275,25.765785 L87.4615275,18.7067874 C87.4615275,17.5054963 87.7334543,16.5197974 88.267931,15.7760513 C88.7958441,15.0407783 89.4981653,14.6670223 90.3589543,14.6670223 C90.6496346,14.6670223 90.9768844,14.7150363 91.3303893,14.8101228 C91.6801434,14.9042679 91.935192,15.0078275 92.0842828,15.1170358 L92.2202462,15.2158881 L92.2202462,11.9424639 L92.1677362,11.9198691 C91.8667414,11.7918318 91.4410353,11.7268717 90.9018702,11.7268717 M102.251532,22.258881 C101.644854,23.0242805 100.730617,23.4112167 99.5350768,23.4112167 C98.3479757,23.4112167 97.4112348,23.0158074 96.7511091,22.2372277 C96.0872327,21.4558235 95.7515437,20.3373801 95.7515437,18.9195553 C95.7515437,17.4565408 96.0872327,16.3117368 96.7511091,15.514328 C97.4112348,14.7235094 98.3395366,14.3205685 99.5097595,14.3205685 C100.644351,14.3205685 101.547335,14.7046804 102.195271,15.4625482 C102.845082,16.2232404 103.175145,17.3595714 103.175145,18.839532 C103.175145,20.3383215 102.864773,21.4887743 102.252469,22.258881 M99.6813547,11.6336681 C97.4149855,11.6336681 95.6146427,12.3011566 94.3309607,13.6154219 C93.0491541,14.9296871 92.3993428,16.7504528 92.3993428,19.0259392 C92.3993428,21.1865686 93.0332136,22.9235452 94.2850145,24.1907379 C95.537753,25.4560477 97.241515,26.0990585 99.3494164,26.0990585 C101.546397,26.0990585 103.311108,25.4221555 104.593853,24.0900027 C105.876597,22.7569085 106.526408,20.9549718 106.526408,18.733148 C106.526408,16.5367435 105.916917,14.7884695 104.713876,13.5297498 C103.509896,12.2719717 101.816449,11.6336681 99.6813547,11.6336681 M113.696836,17.6683673 C112.67758,17.2569533 112.024018,16.9170896 111.755842,16.6553663 C111.497042,16.4011746 111.363892,16.0453062 111.363892,15.5915269 C111.363892,15.1904689 111.527048,14.8703757 111.861799,14.6095938 C112.197488,14.3469291 112.667265,14.2141845 113.254252,14.2141845 C113.799043,14.2141845 114.3579,14.3017394 114.912068,14.4702591 C115.425589,14.6208071 115.913639,14.8480414 116.359843,15.1443378 L116.493931,15.2356586 L116.493931,12.2352551 L116.443297,12.2126603 C116.068225,12.0526136 115.574069,11.9132789 114.973017,11.8012463 C114.441515,11.6968907 113.901732,11.6408047 113.36021,11.6336681 C111.817728,11.6336681 110.543423,12.0290774 109.568238,12.8104815 C108.589301,13.5956514 108.091394,14.6255985 108.091394,15.8730207 C108.091394,16.5197974 108.199227,17.0950238 108.410205,17.5817538 C108.623058,18.0713082 108.952183,18.5043755 109.389141,18.866834 C109.820473,19.2245853 110.491851,19.6002242 111.37702,19.9833946 C112.122474,20.291249 112.679455,20.5510894 113.032022,20.7572671 C113.377088,20.9587376 113.62276,21.160208 113.760598,21.3579127 C113.894686,21.5509101 113.964075,21.8145163 113.964075,22.1393168 C113.964075,23.0666457 113.272068,23.5176006 111.848672,23.5176006 C111.321696,23.5176006 110.719707,23.4074509 110.060519,23.1890343 C109.405625,22.9744934 108.787616,22.6597999 108.228295,22.2560567 L108.091394,22.1581458 L108.091394,25.3223617 L108.141091,25.3449565 C108.604304,25.5596073 109.188478,25.7413073 109.877671,25.8834663 C110.56499,26.0265668 111.188546,26.1 111.729587,26.1 C113.403343,26.1 114.750787,25.7008249 115.733474,24.915655 C116.721787,24.1257778 117.224383,23.071353 117.224383,21.780624 C117.224383,20.8504707 116.953394,20.053062 116.42173,19.4100511 C115.89288,18.7717475 114.97583,18.1861652 113.696836,17.6683673 M128.487778,22.258881 C127.880162,23.0242805 126.964988,23.4112167 125.770386,23.4112167 C124.582347,23.4112167 123.646544,23.0158074 122.986418,22.2372277 C122.322542,21.4558235 121.986853,20.3373801 121.986853,18.9195553 C121.986853,17.4565408 122.322542,16.3117368 122.986418,15.514328 C123.646544,14.7235094 124.574845,14.3205685 125.744131,14.3205685 C126.878722,14.3205685 127.782644,14.7046804 128.43058,15.4625482 C129.080391,16.2232404 129.410454,17.3595714 129.410454,18.839532 C129.410454,20.3383215 129.098207,21.4887743 128.48684,22.258881 M125.916663,11.6336681 C123.649357,11.6336681 121.849952,12.3011566 120.56627,13.6154219 C119.283525,14.9296871 118.633714,16.7504528 118.633714,19.0259392 C118.633714,21.1865686 119.268522,22.9235452 120.520323,24.1907379 C121.773062,25.4560477 123.476824,26.0990585 125.584725,26.0990585 C127.780768,26.0990585 129.546417,25.4221555 130.829162,24.0900027 C132.111906,22.7569085 132.760779,20.9549718 132.760779,18.733148 C132.760779,16.5367435 132.151288,14.7884695 130.948247,13.5297498 C129.745205,12.2719717 128.05082,11.6336681 125.916663,11.6336681 M150,14.6143011 L150,11.9669416 L146.725626,11.9669416 L146.725626,7.85091904 L146.61498,7.88481126 L143.540332,8.82908634 L143.480321,8.84791536 L143.480321,11.9669416 L138.628772,11.9669416 L138.628772,10.2290236 C138.628772,9.41937595 138.809744,8.80084282 139.164186,8.38942885 C139.517691,7.97989779 140.021225,7.77372008 140.663534,7.77372008 C141.155607,7.77999616 141.640753,7.89102124 142.086931,8.09946203 L142.207891,8.15312472 L142.207891,5.36454766 L142.15163,5.34477719 C141.701545,5.18190621 141.090178,5.1 140.332534,5.1 C139.377977,5.1 138.509687,5.30900206 137.753918,5.72135748 C137.007836,6.12394808 136.393423,6.73429508 135.984518,7.479046 C135.567251,8.22938223 135.356274,9.09645835 135.356274,10.0557966 L135.356274,11.9669416 L133.077715,11.9669416 L133.077715,14.6133596 L135.356274,14.6133596 L135.356274,25.765785 L138.628772,25.765785 L138.628772,14.6133596 L143.480321,14.6133596 L143.480321,21.7006007 C143.480321,24.619098 144.851207,26.0990585 147.555472,26.0990585 C147.998994,26.0990585 148.467833,26.0453959 148.945112,25.9437192 C149.431767,25.8382767 149.76183,25.7328342 149.955929,25.621743 L150,25.5953824 L150,22.9226038 L149.86685,23.0129831 C149.664052,23.1434795 149.441854,23.2407248 149.208599,23.301067 C148.947925,23.3745001 148.730383,23.4112167 148.561601,23.4112167 C147.928668,23.4112167 147.459829,23.2408141 147.169148,22.9018919 C146.874717,22.5610867 146.725626,21.9642069 146.725626,21.1281987 L146.725626,14.6133596 L150,14.6133596 L150,14.6143011 L150,14.6143011 Z" id="Shape" fill="#737373"></path>
            <polygon id="Path" fill="#EF5124" points="15.15 15.3 0 15.3 0 0 15.15 0"></polygon>
            <polygon id="Path" fill="#7EBA42" points="31.949066 15.3 16.8 15.3 16.8 0 31.95 0"></polygon>
            <polygon id="Path" fill="#339FD9" points="15.15 31.95 0 31.95 0 16.65 15.15 16.65"></polygon>
            <polygon id="Path" fill="#FCB713" points="31.949066 31.95 16.8 31.95 16.8 16.65 31.95 16.65"></polygon>
        </g>
    </g>
</svg>