<svg width="162" height="31" viewBox="0 0 162 31" fill="none" xmlns="http://www.w3.org/2000/svg">
<g clip-path="url(#clip0_1747_3797)">
<path d="M136.144 0.400024C134.569 0.400024 132.199 1.71519 132.199 3.4569C132.199 4.91424 133.222 5.66069 134.687 5.66069C136.519 5.66069 139.414 4.8787 139.414 2.63936C139.414 0.79102 137.72 0.400024 136.144 0.400024ZM45.5043 1.69742C45.3088 1.65334 45.291 1.85737 45.291 1.85737C44.1372 4.42728 41.674 6.26069 38.9285 7.04694C38.9285 7.04694 38.8041 7.07254 38.8041 7.22467V8.85974C38.8041 9.09931 38.9285 9.03747 38.9285 9.03747H40.4747C40.6489 9.03747 40.5991 9.17965 40.5991 9.17965V19.5588C40.5991 22.6505 41.8851 24.2507 45.2199 24.2507C48.1936 24.2507 48.4126 24.1775 50.7649 22.4913C50.7649 22.4913 50.9156 22.4387 50.836 22.2602C50.7721 22.1166 50.1607 20.6785 50.1074 20.5007C50.042 20.2832 49.8941 20.4119 49.8941 20.4119C49.464 20.6308 49.3638 20.6251 48.81 20.6251C48.2605 20.6251 47.3171 20.4119 47.3171 19.31V9.17965C47.3171 9.17965 47.2813 9.03747 47.477 9.03747H49.8408C49.8408 9.03747 49.9922 9.11282 50.0363 8.89529C50.0886 8.63083 50.5339 6.42491 50.5339 6.42491C50.5339 6.42491 50.6014 6.26495 50.4273 6.26495H47.4415C47.4415 6.26495 47.3171 6.31898 47.3171 6.12277V4.84315C47.3171 4.08036 47.3638 3.07585 47.5304 2.23059C47.5304 2.23059 47.6235 2.09623 47.406 2.05287C47.1039 1.99244 45.7005 1.74007 45.5043 1.69742ZM85.5991 2.99481C83.6199 2.99481 82.9638 3.52799 82.5244 4.84315C82.5244 4.84315 82.2265 5.7069 82.1334 6.01614C82.068 6.23438 81.9202 6.17609 81.9202 6.17609C80.9412 6.02467 79.8892 5.73178 78.0458 5.73178C74.0519 5.73178 69.8704 7.93557 69.8704 13.0541C69.8704 16.6804 72.8534 18.7711 75.9131 19.31C75.9131 19.31 76.3965 19.3825 75.9131 19.5232C75.0052 19.7863 73.1036 20.9159 70.9368 21.265C70.9368 21.265 70.7213 21.2884 70.8301 21.5493C70.8836 21.6773 71.4842 23.1865 71.5766 23.4332C71.642 23.6074 71.8609 23.5754 71.8609 23.5754C72.8733 23.3685 75.783 23.6344 76.3041 23.6998C76.7597 23.7574 76.3041 23.8242 76.3041 23.8242C74.7756 24.0844 72.9984 25.1913 72.9984 26.8455C72.9984 29.724 76.2963 30.4 79.5209 30.4C81.7197 30.4 87.0209 29.4759 87.0209 25.6014C87.0209 21.7171 81.0223 20.9614 78.0813 20.6785C77.5808 20.6308 78.0813 20.5363 78.0813 20.5363C82.4683 19.4522 87.6074 18.2913 87.6074 12.7697C87.6074 8.61093 84.1595 7.50903 84.1595 6.79813C84.1595 6.40713 84.3955 6.04102 84.8349 6.01614C85.597 5.97206 85.6289 6.03889 86.0079 6.26495C86.0079 6.26495 86.1202 6.45476 86.1856 6.19386C86.2243 6.0396 86.8787 3.45903 86.9143 3.2614C86.9581 3.02183 86.7543 3.08367 86.7543 3.08367C86.3712 3.04671 85.9745 2.99481 85.5991 2.99481V2.99481ZM25.2792 4.91424C25.2013 4.93784 25.1903 5.03865 25.1903 5.03865C25.1903 5.03865 23.074 10.2417 22.9865 10.4593C22.8998 10.6768 23.0576 10.6903 23.0576 10.6903C23.0576 10.6903 24.8164 11.3138 25.0126 11.4012C25.2081 11.4879 25.2792 11.3479 25.2792 11.3479C26.2375 10.1685 27.2 9.42849 29.2602 9.42849C30.8725 9.42849 31.6773 10.0328 31.6773 11.4901V12.041C31.6773 12.2365 31.6062 12.2543 31.6062 12.2543L26.6477 12.3787C23.3868 12.3787 20.7472 14.7254 20.7472 18.8479C20.7472 22.1543 23.2425 24.2508 26.5766 24.2508C28.5479 24.2508 30.1048 23.4012 31.5351 22.2602C31.5351 22.2602 31.7718 21.8899 31.8372 22.2602C31.9026 22.6306 32.0413 23.1062 32.1394 23.5221C32.1906 23.7375 32.3349 23.7176 32.3349 23.7176H39.2839C39.2839 23.7176 39.5505 23.8057 39.5505 23.5221V21.7804C39.5505 21.7804 39.6024 21.5849 39.3195 21.5849H38.5197C38.3455 21.5849 38.3775 21.265 38.3775 21.265V11.6323C38.3775 7.43797 35.6747 5.73181 31.5707 5.73181C30.1204 5.73181 28.7249 5.93299 27.3586 6.46048C27.3586 6.46048 27.06 6.64318 27.2342 6.22944C27.3173 6.03181 27.3941 5.8029 27.3941 5.8029C27.3941 5.8029 27.4872 5.60598 27.2697 5.51854C27.0301 5.4311 25.6446 5.01095 25.3858 4.91427C25.3423 4.89795 25.3051 4.90642 25.2792 4.91427V4.91424ZM55.5102 4.91424C55.4321 4.93784 55.4214 5.03865 55.4214 5.03865C55.4214 5.03865 53.305 10.2417 53.2176 10.4593C53.1309 10.6775 53.2887 10.6903 53.2887 10.6903C53.2887 10.6903 55.0475 11.3145 55.2436 11.4012C55.4399 11.4887 55.5102 11.3479 55.5102 11.3479C56.4678 10.1685 57.4133 9.42849 59.4735 9.42849C61.0858 9.42849 61.8906 10.0328 61.8906 11.4901V12.041C61.8906 12.2373 61.8371 12.2543 61.8371 12.2543L56.8786 12.3787C53.617 12.3787 50.9781 14.7247 50.9781 18.8479C50.9781 22.1529 53.4727 24.2508 56.8075 24.2508C58.7781 24.2508 60.3186 23.4012 61.7483 22.2602C61.7483 22.2602 62.0021 21.8899 62.0681 22.2602C62.1336 22.6299 62.2715 23.1062 62.3703 23.5221C62.4209 23.7382 62.5658 23.7176 62.5658 23.7176H69.4971C69.4971 23.7176 69.7815 23.805 69.7815 23.5221V21.7804C69.7815 21.7804 69.8332 21.5849 69.5504 21.5849H68.7506C68.5765 21.5849 68.6084 21.265 68.6084 21.265V11.6323C68.6084 7.43797 65.8885 5.73181 61.7838 5.73181C60.3343 5.73181 58.9566 5.93299 57.5895 6.46048C57.5895 6.46048 57.2909 6.64318 57.4651 6.22944C57.5482 6.03181 57.6073 5.78512 57.6073 5.78512C57.6073 5.78512 57.7004 5.60598 57.4829 5.51854C57.2433 5.43181 55.8748 5.01095 55.6167 4.91427C55.573 4.89795 55.5362 4.90642 55.5101 4.91427L55.5102 4.91424ZM144.888 4.91424C144.81 4.93784 144.799 5.03865 144.799 5.03865C144.799 5.03865 142.683 10.2417 142.596 10.4593C142.509 10.6775 142.667 10.6903 142.667 10.6903C142.667 10.6903 144.425 11.3145 144.622 11.4012C144.818 11.4887 144.888 11.3479 144.888 11.3479C145.846 10.1685 146.791 9.42849 148.851 9.42849C150.464 9.42849 151.269 10.0328 151.269 11.4901V12.041C151.269 12.2373 151.215 12.2543 151.215 12.2543L146.257 12.3787C142.994 12.3787 140.356 14.7247 140.356 18.8479C140.356 22.1529 142.851 24.2508 146.185 24.2508C148.156 24.2508 149.697 23.4012 151.126 22.2602C151.126 22.2602 151.38 21.8899 151.446 22.2602C151.512 22.6299 151.649 23.1062 151.748 23.5221C151.799 23.7382 151.944 23.7176 151.944 23.7176H158.875C158.875 23.7176 159.159 23.805 159.159 23.5221V21.7804C159.159 21.7804 159.211 21.5849 158.928 21.5849H158.129C157.954 21.5849 157.986 21.265 157.986 21.265V11.6323C157.986 7.43797 155.266 5.73181 151.162 5.73181C149.712 5.73181 148.334 5.93299 146.967 6.46048C146.967 6.46048 146.668 6.64318 146.843 6.22944C146.925 6.03181 146.985 5.78512 146.985 5.78512C146.985 5.78512 147.078 5.60598 146.861 5.51854C146.621 5.43181 145.253 5.01095 144.995 4.91427C144.951 4.89795 144.914 4.90642 144.888 4.91427L144.888 4.91424ZM98.6619 5.73178C92.836 5.73178 88.3361 9.25002 88.3361 14.9735C88.3361 20.7311 92.836 24.2507 98.6619 24.2507C104.525 24.2507 109.041 20.7311 109.041 14.9735C109.041 9.25002 104.525 5.73178 98.6619 5.73178ZM123.259 5.73178C120.81 5.73178 118.974 7.09102 117.163 8.46875C117.163 8.46875 116.985 8.71685 116.985 8.4332V5.87396C116.985 5.67775 116.808 5.7851 116.808 5.7851L109.077 7.82893C109.077 7.82893 108.917 7.82893 108.917 8.02443V9.80168C108.917 9.99789 109.094 9.90832 109.094 9.90832C109.094 9.90832 109.775 9.74694 110.036 9.6595C110.297 9.57206 110.214 9.78391 110.214 9.78391V21.4249C110.214 21.4249 110.264 21.5849 110.09 21.5849H109.041C109.041 21.5849 108.917 21.5273 108.917 21.7448V23.5398C108.917 23.7794 109.041 23.7176 109.041 23.7176H118.212C118.212 23.7176 118.336 23.746 118.336 23.5932V21.7448C118.336 21.5273 118.158 21.5849 118.158 21.5849H117.056C116.882 21.5849 116.914 21.4605 116.914 21.4605V11.6145C116.914 11.4403 117.039 11.3479 117.039 11.3479C117.875 10.6441 118.735 9.99718 119.918 9.99718C120.907 9.99718 121.855 10.5311 121.855 11.5612V21.4605C121.855 21.4605 121.905 21.5849 121.731 21.5849H120.664C120.664 21.5849 120.469 21.5706 120.469 21.7448V23.5932C120.469 23.746 120.629 23.7176 120.629 23.7176H129.639C129.639 23.7176 129.817 23.7794 129.817 23.5398V21.7448C129.817 21.5493 129.657 21.5849 129.657 21.5849H128.697C128.545 21.5849 128.573 21.4071 128.573 21.4071V10.7792C128.573 8.82348 127.913 5.73178 123.259 5.73178ZM13.2472 5.74952C11.6221 5.74952 10.3865 6.40995 8.82184 7.34905C8.82184 7.34905 8.64411 7.43436 8.64411 7.26019V5.92725C8.64411 5.73175 8.46639 5.78507 8.46639 5.78507L0.806437 7.75782C0.806437 7.75782 0.646484 7.75782 0.646484 7.95331V9.73057C0.646484 9.97014 0.824209 9.89052 0.824209 9.89052L1.71284 9.67725C1.71284 9.67725 1.92611 9.57985 1.92611 9.81943V26.8633C1.92611 26.8633 1.93464 27.1121 1.69506 27.1121H0.859755C0.859755 27.1121 0.646484 27.0815 0.646484 27.3431V29.0137C0.646484 29.2533 0.930845 29.2448 0.930845 29.2448H10.8301C10.8301 29.2448 11.0256 29.1701 11.0256 28.996V27.3431C11.0256 27.1036 10.8124 27.1121 10.8124 27.1121H8.85738C8.63914 27.1121 8.64411 26.8099 8.64411 26.8099V23.7353C8.64411 23.5611 8.78629 23.6287 8.78629 23.6287C9.76947 24.1291 11.155 24.2685 12.1986 24.2685C17.6221 24.2685 20.765 19.2566 20.765 14.2448C20.765 9.16184 17.4614 5.74952 13.2472 5.74952V5.74952ZM139.023 5.76727C138.979 5.76329 138.934 5.78501 138.934 5.78501L131.239 7.89994C131.239 7.89994 131.097 7.90705 131.097 8.05989V9.78383C131.097 10.0234 131.31 9.92601 131.31 9.92601C131.31 9.92601 131.814 9.81795 132.252 9.74828C132.472 9.712 132.412 9.91605 132.412 10.0682V21.407C132.412 21.407 132.47 21.5848 132.252 21.5848H131.168C131.168 21.5848 131.026 21.5229 131.026 21.7625V23.5753C131.026 23.7928 131.168 23.7175 131.168 23.7175H140.178C140.396 23.7175 140.321 23.5398 140.321 23.5398C140.321 23.5398 140.315 22.0447 140.321 21.7625C140.326 21.5222 140.161 21.5848 140.161 21.5848H139.272C139.055 21.5848 139.112 21.4248 139.112 21.4248V5.90942C139.112 5.8003 139.067 5.77106 139.023 5.76724V5.76727ZM77.7614 7.97106C80.5105 7.97106 81.6358 13.3376 81.6358 15.2578C81.6358 16.9632 81.0898 17.6393 79.7342 17.6393C76.9858 17.6393 75.842 12.272 75.842 10.3526C75.842 8.6457 76.4057 7.97106 77.7614 7.97106ZM97.5244 8.43314C101.226 8.43314 102.341 14.9741 102.341 17.5327C102.341 19.4521 101.813 21.5493 99.8349 21.5493C96.1339 21.5493 95.0363 15.0083 95.0363 12.4497C95.0363 11.1339 95.0306 8.43314 97.5244 8.43314V8.43314ZM9.69269 9.51727C10.8287 9.51727 14.0647 9.83788 14.0647 16.2353C14.0647 20.217 13.0993 21.567 10.9012 21.567C9.14246 21.567 8.64411 20.2519 8.64411 18.6879V9.96158C8.64411 9.7213 8.83961 9.65945 8.83961 9.65945L9.69269 9.51727V9.51727ZM30.6109 14.5113H31.4996C31.7171 14.5113 31.6773 14.6535 31.6773 14.6535V17.9237C31.6773 19.2744 31.3368 20.5185 29.6512 20.5185C27.8548 20.5185 27.4652 18.9545 27.4652 17.5682C27.4652 15.7554 28.7782 14.5113 30.6109 14.5113V14.5113ZM60.842 14.5113H61.7306C61.9481 14.5113 61.8906 14.6535 61.8906 14.6535V17.9237C61.8906 19.2744 61.5678 20.5185 59.8823 20.5185C58.0872 20.5185 57.6785 18.9552 57.6785 17.5682C57.6785 15.7554 59.01 14.5113 60.842 14.5113V14.5113ZM150.22 14.5113H151.109C151.326 14.5113 151.269 14.6535 151.269 14.6535V17.9237C151.269 19.2744 150.947 20.5185 149.26 20.5185C147.465 20.5185 147.056 18.9552 147.056 17.5682C147.056 15.7554 148.388 14.5113 150.22 14.5113V14.5113ZM78.8988 24.4996C78.9426 24.4996 78.9699 24.5173 78.9699 24.5173C80.177 25.2524 81.0493 25.8069 81.0493 27.3787C81.0493 28.2666 80.5794 28.6938 79.6631 28.6938C78.6365 28.6938 78.1524 27.7334 78.1524 26.8455C78.1524 26.0614 78.4346 24.8877 78.7033 24.6062C78.7848 24.5205 78.8549 24.4994 78.8988 24.4995V24.4996Z" fill="#231F20"/>
<path d="M160.005 3.5286C159.888 3.46533 159.701 3.43405 159.443 3.43405H159.047V4.35324H159.467C159.663 4.35324 159.81 4.33402 159.908 4.29711C160.089 4.22744 160.18 4.09522 160.18 3.89972C160.18 3.71559 160.121 3.5919 160.005 3.52863V3.5286ZM159.513 3.11417C159.833 3.11417 160.067 3.14545 160.216 3.20659C160.483 3.31749 160.615 3.53431 160.615 3.85777C160.615 4.08668 160.532 4.25659 160.366 4.36465C160.278 4.42223 160.155 4.46346 159.997 4.48905C160.194 4.52102 160.339 4.60422 160.43 4.74C160.522 4.87507 160.567 5.00801 160.567 5.13669V5.32436C160.567 5.38337 160.569 5.44664 160.574 5.51488C160.578 5.58242 160.587 5.6265 160.598 5.64782L160.615 5.67978H160.192C160.19 5.67125 160.189 5.66272 160.186 5.65419C160.184 5.64566 160.182 5.63645 160.18 5.62576L160.17 5.54329V5.34069C160.17 5.04495 160.088 4.85016 159.924 4.7549C159.826 4.70019 159.655 4.67315 159.41 4.67315H159.047V5.67978H158.612V3.11414H159.513L159.513 3.11417ZM158.135 2.98834C157.743 3.38005 157.547 3.8528 157.547 4.4073C157.547 4.96536 157.742 5.44095 158.132 5.83479C158.523 6.22792 158.999 6.42484 159.559 6.42484C160.119 6.42484 160.595 6.22792 160.986 5.83479C161.378 5.44095 161.574 4.96536 161.574 4.4073C161.574 3.8528 161.378 3.38005 160.986 2.98834C160.592 2.59522 160.116 2.3983 159.559 2.3983C159.003 2.3983 158.529 2.59522 158.135 2.98834V2.98834ZM161.209 6.05801C160.754 6.51583 160.202 6.74403 159.556 6.74403C158.909 6.74403 158.359 6.51583 157.905 6.05801C157.453 5.60304 157.228 5.05138 157.228 4.40375C157.228 3.7618 157.456 3.2137 157.912 2.75872C158.365 2.30517 158.913 2.0791 159.556 2.0791C160.202 2.0791 160.754 2.30517 161.209 2.75872C161.665 3.21157 161.893 3.76038 161.893 4.40375C161.893 5.04924 161.665 5.6009 161.209 6.05801Z" fill="#231F20"/>
</g>
<defs>
<clipPath id="clip0_1747_3797">
<rect width="161.246" height="30" fill="white" transform="translate(0.646484 0.400024)"/>
</clipPath>
</defs>
</svg>
