<svg width="151" height="43" viewBox="0 0 151 43" fill="none" xmlns="http://www.w3.org/2000/svg">
<path d="M32.5637 8.05092C32.5337 7.84092 32.3537 7.72092 32.2037 7.72092C32.0537 7.72092 29.0837 7.66092 29.0837 7.66092C29.0837 7.66092 26.5937 5.26092 26.3537 4.99092C26.1137 4.75092 25.6337 4.81092 25.4537 4.87092C25.4537 4.87092 24.9737 5.02092 24.1937 5.26092C24.0737 4.84092 23.8637 4.33092 23.5937 3.79092C22.7237 2.11092 21.4037 1.21092 19.8437 1.21092C19.7237 1.21092 19.6337 1.21092 19.5137 1.24092C19.4537 1.18092 19.4237 1.12092 19.3637 1.09092C18.6737 0.370917 17.8037 0.010917 16.7537 0.0409171C14.7437 0.100917 12.7337 1.57092 11.0837 4.15092C9.94375 5.98092 9.07375 8.26092 8.80375 10.0309C6.49375 10.7509 4.87375 11.2609 4.81375 11.2609C3.64375 11.6209 3.61375 11.6509 3.46375 12.7609C3.40375 13.6009 0.34375 37.2709 0.34375 37.2709L26.0237 41.7109L37.1537 38.9509C37.1237 38.9509 32.5937 8.26092 32.5637 8.05092ZM22.9037 5.68092C22.3037 5.86092 21.6437 6.07092 20.9237 6.31092C20.9237 5.29092 20.7737 3.85092 20.3237 2.65092C21.8537 2.89092 22.6037 4.63092 22.9037 5.68092ZM19.5737 6.70092C18.2237 7.12092 16.7537 7.57092 15.2837 8.02092C15.7037 6.43092 16.4837 4.87092 17.4437 3.82092C17.8037 3.43092 18.3137 3.01092 18.8837 2.77092C19.4837 3.94092 19.6037 5.59092 19.5737 6.70092ZM16.8137 1.39092C17.2937 1.39092 17.6837 1.48092 18.0137 1.72092C17.4737 1.99092 16.9337 2.41092 16.4537 2.95092C15.1637 4.33092 14.1737 6.46092 13.7837 8.53092C12.5537 8.92092 11.3537 9.28092 10.2737 9.61092C10.9937 6.34092 13.7237 1.48092 16.8137 1.39092Z" fill="#95BF47"/>
<path d="M32.2039 7.72094C32.0539 7.72094 29.0839 7.66094 29.0839 7.66094C29.0839 7.66094 26.5939 5.26094 26.3539 4.99094C26.2639 4.90094 26.1439 4.84094 26.0239 4.84094V41.7109L37.1539 38.9509C37.1539 38.9509 32.6239 8.26094 32.5939 8.05094C32.5339 7.84094 32.3539 7.72094 32.2039 7.72094Z" fill="#5E8E3E"/>
<path d="M19.8438 13.4509L18.5538 18.2809C18.5538 18.2809 17.1138 17.6209 15.4038 17.7409C12.8838 17.8909 12.8838 19.4809 12.8838 19.8709C13.0338 22.0309 18.7038 22.5109 19.0338 27.5809C19.2738 31.5709 16.9338 34.3009 13.5138 34.5109C9.43384 34.7209 7.18384 32.3209 7.18384 32.3209L8.05384 28.6309C8.05384 28.6309 10.3338 30.3409 12.1338 30.2209C13.3038 30.1609 13.7538 29.1709 13.6938 28.5109C13.5138 25.6909 8.89384 25.8709 8.59384 21.2209C8.35384 17.3209 10.9038 13.3909 16.5438 13.0309C18.7338 12.8809 19.8438 13.4509 19.8438 13.4509Z" fill="white"/>
<path d="M52.2139 23.7409C50.9239 23.0509 50.2639 22.4509 50.2639 21.6409C50.2639 20.6209 51.1939 19.9609 52.6339 19.9609C54.3139 19.9609 55.8139 20.6509 55.8139 20.6509L56.9839 17.0509C56.9839 17.0509 55.9039 16.2109 52.7239 16.2109C48.2839 16.2109 45.1939 18.7609 45.1939 22.3309C45.1939 24.3709 46.6339 25.9009 48.5539 27.0109C50.1139 27.8809 50.6539 28.5109 50.6539 29.4409C50.6539 30.4009 49.8739 31.1809 48.4339 31.1809C46.3039 31.1809 44.2639 30.0709 44.2639 30.0709L43.0039 33.6709C43.0039 33.6709 44.8639 34.9309 48.0139 34.9309C52.5739 34.9309 55.8739 32.6809 55.8739 28.6309C55.8439 26.4409 54.1939 24.8809 52.2139 23.7409Z" fill="black"/>
<path d="M70.3936 16.1508C68.1436 16.1508 66.3736 17.2308 65.0236 18.8508L64.9636 18.8209L66.9136 8.62085H61.8436L56.8936 34.6009H61.9636L63.6436 25.7209C64.3036 22.3609 66.0436 20.2909 67.6636 20.2909C68.8036 20.2909 69.2536 21.0708 69.2536 22.1808C69.2536 22.8708 69.1936 23.7408 69.0436 24.4308L67.1236 34.6009H72.1936L74.1736 24.1008C74.3836 22.9908 74.5336 21.6709 74.5336 20.7709C74.5636 17.8908 73.0636 16.1508 70.3936 16.1508Z" fill="black"/>
<path d="M86.0538 16.1509C79.9338 16.1509 75.8838 21.6709 75.8838 27.8209C75.8838 31.7509 78.3138 34.9309 82.8738 34.9309C88.8738 34.9309 92.9238 29.5609 92.9238 23.2609C92.9538 19.6309 90.8238 16.1509 86.0538 16.1509ZM83.5638 31.0609C81.8238 31.0609 81.1038 29.5909 81.1038 27.7309C81.1038 24.8209 82.6038 20.0809 85.3638 20.0809C87.1638 20.0809 87.7638 21.6409 87.7638 23.1409C87.7638 26.2609 86.2338 31.0609 83.5638 31.0609Z" fill="black"/>
<path d="M105.944 16.1509C102.524 16.1509 100.574 19.1809 100.574 19.1809H100.514L100.814 16.4509H96.3139C96.1039 18.2809 95.6839 21.1009 95.2939 23.2009L91.7539 41.8009H96.8239L98.2339 34.2709H98.3539C98.3539 34.2709 99.4039 34.9309 101.324 34.9309C107.294 34.9309 111.194 28.8109 111.194 22.6309C111.194 19.2109 109.664 16.1509 105.944 16.1509ZM101.084 31.1209C99.7639 31.1209 98.9839 30.3709 98.9839 30.3709L99.8239 25.6309C100.424 22.4509 102.074 20.3509 103.844 20.3509C105.404 20.3509 105.884 21.7909 105.884 23.1409C105.884 26.4409 103.934 31.1209 101.084 31.1209Z" fill="black"/>
<path d="M118.454 8.86096C116.834 8.86096 115.544 10.151 115.544 11.801C115.544 13.301 116.504 14.351 117.944 14.351H118.004C119.594 14.351 120.944 13.271 120.974 11.411C120.974 9.94096 119.984 8.86096 118.454 8.86096Z" fill="black"/>
<path d="M111.344 34.5709H116.414L119.864 16.5709H114.764L111.344 34.5709Z" fill="black"/>
<path d="M132.794 16.5409H129.254L129.434 15.7009C129.734 13.9609 130.754 12.4309 132.464 12.4309C133.364 12.4309 134.084 12.7009 134.084 12.7009L135.074 8.71086C135.074 8.71086 134.204 8.26086 132.314 8.26086C130.514 8.26086 128.714 8.77086 127.334 9.94086C125.594 11.4109 124.784 13.5409 124.394 15.7009L124.244 16.5409H121.874L121.124 20.3809H123.494L120.794 34.6009H125.864L128.564 20.3809H132.074L132.794 16.5409Z" fill="black"/>
<path d="M145.034 16.5709C145.034 16.5709 141.854 24.5809 140.444 28.9609H140.384C140.294 27.5509 139.124 16.5709 139.124 16.5709H133.784L136.844 33.1009C136.904 33.4609 136.874 33.7009 136.724 33.9409C136.124 35.0809 135.134 36.1909 133.964 37.0009C133.004 37.6909 131.924 38.1409 131.084 38.4409L132.494 42.7609C133.514 42.5509 135.674 41.6809 137.474 40.0009C139.784 37.8409 141.944 34.4809 144.134 29.9209L150.344 16.5709H145.034Z" fill="black"/>
</svg>
