<?xml version="1.0" encoding="UTF-8"?>
<svg width="150px" height="43px" viewBox="0 0 150 43" version="1.1" xmlns="http://www.w3.org/2000/svg" xmlns:xlink="http://www.w3.org/1999/xlink">
    <title>svgexport-1</title>
    <g id="logos" stroke="none" stroke-width="1" fill="none" fill-rule="evenodd">
        <g id="svgexport-1" fill-rule="nonzero">
            <path d="M138.249081,36.5824859 L142.553164,36.5824859 L150,17.7106817 L145.739701,17.7106817 L142.661583,27.1097492 L139.418752,17.7106817 L134.663618,17.7106817 L140.325716,31.3422486 L138.249081,36.5824859 Z M116.886426,22.1905981 L116.886426,31.8641874 L112.544118,31.8641874 L112.544118,17.7106817 L115.595131,17.7106817 L116.502096,18.9470719 C117.683581,17.9580987 118.947771,17.3805606 120.404474,17.3805606 C122.356011,17.3805606 123.839818,17.9580987 124.746782,19.3876966 C126.065876,18.1777161 127.467675,17.3805606 129.254498,17.3805606 C132.607138,17.3805606 134.558675,19.1124799 134.558675,23.8120137 L134.558675,31.8641874 L130.216367,31.8641874 L130.216367,24.3068478 C130.216367,22.1356937 129.336507,21.5032513 127.934709,21.5032513 C127.110449,21.5032513 126.423797,21.7228687 125.653746,22.2177028 C125.709346,22.7125369 125.73645,23.2344756 125.73645,23.8120137 L125.73645,31.8641874 L121.394142,31.8641874 L121.394142,24.3068478 C121.394142,22.1356937 120.514283,21.5032513 119.08538,21.5032513 C118.288224,21.5032513 117.628677,21.695764 116.886426,22.1905981 L116.886426,22.1905981 Z M101.741862,23.3998836 L107.321256,23.3998836 C107.018934,21.5588506 106.029266,20.6789912 104.545459,20.6789912 C103.280574,20.6789912 102.071983,21.4212423 101.741862,23.3998836 L101.741862,23.3998836 Z M104.84778,32.1394041 C100.670185,32.1394041 97.3168503,30.0780588 97.3168503,24.6362738 C97.3168503,19.5517146 100.560376,17.3534559 104.298042,17.3534559 C108.805063,17.3534559 110.811504,20.5135831 110.811504,25.4883336 L101.714063,25.4883336 C102.017079,27.9340094 103.528686,28.6491557 105.535127,28.6491557 C107.475544,28.6491557 108.993405,28.1703066 110.167942,27.380101 L109.578588,30.8244799 C108.457567,31.6904395 107.112063,32.1394041 104.84778,32.1394041 L104.84778,32.1394041 Z M88.6787986,28.4844428 C89.6677717,28.4844428 90.4100227,28.3190348 91.1793785,27.7421918 L91.1793785,21.5859553 C90.4927267,21.1731303 89.8060749,20.9813125 88.8164068,20.9813125 C86.7001572,20.9813125 85.4908716,22.4102154 85.4908716,24.8009869 C85.4908716,27.137549 86.7279569,28.4844428 88.6787986,28.4844428 L88.6787986,28.4844428 Z M92.0314385,30.8203098 C90.9048568,31.6723698 89.6135623,32.1943083 87.7718343,32.1943083 C83.8965606,32.1943083 81.0936592,29.8035371 81.0936592,24.8836909 C81.0936592,19.9916444 84.3093857,17.3534559 88.4313814,17.3534559 C89.3932501,17.3534559 90.3280138,17.4910643 91.1793785,17.8204903 L91.1793785,11.8129822 L95.5223816,11.8129822 L95.5223816,31.8641874 L92.7736895,31.8641874 L92.0314385,30.8203098 Z M62.6944493,23.4818926 L62.6944493,12.9923831 L67.2014704,12.9923831 L67.2014704,23.3998836 C67.2014704,27.137549 68.8777903,27.9069047 71.1865528,27.9069047 C73.6878278,27.9069047 74.9791223,26.8074278 74.9791223,23.3998836 L74.9791223,12.9923831 L79.5139431,12.9923831 L79.5139431,23.4818926 C79.5139431,29.6659286 76.8208503,32.2492128 70.9669354,32.2492128 C65.5251504,32.2492128 62.6944493,30.0231543 62.6944493,23.4818926 L62.6944493,23.4818926 Z" id="Fill-1" fill="#645A53"></path>
            <path d="M51.2077656,24.2684147 C51.0249829,24.1217715 50.8192654,24.0230827 50.5954781,23.9806882 C49.2736039,25.2983924 47.6605282,26.6862908 46.2281503,27.6189697 C45.5672132,28.0582043 44.7360031,28.2778218 44.1855697,28.2778218 C42.9185998,28.2778218 42.3681665,27.0699262 42.2027585,25.1496642 C41.9824461,22.57055 41.8337178,19.481312 41.8337178,14.7067191 C41.8337178,9.80980767 40.7224261,6.48079749 37.7617615,6.21948062 C37.6366631,6.20836074 37.5101744,6.20071584 37.3781261,6.20071584 C35.5607229,6.20071584 34.6794734,7.13339469 33.5230072,9.49358644 C32.5319489,11.5236572 30.9897626,14.4871017 28.1263966,20.0845648 C25.6480564,24.914062 22.8944993,29.1945157 20.5259677,32.1579604 C19.8664206,32.9794406 19.3451768,33.5437738 18.8552076,33.8648599 C18.5278666,34.0803075 18.2137303,34.1880311 17.8829143,34.1880311 C16.9481505,34.1880311 16.2656686,33.3992156 16.0377114,31.5623526 C15.983502,31.1258978 15.9550073,30.6303687 15.9550073,30.0722904 C15.9550073,26.2859755 17.3873852,20.1394691 19.8650306,11.0844224 C21.6824338,4.49937618 20.911688,0 16.9460655,0 C16.9398106,0 16.9335556,0 16.9273007,0 C16.9189608,0 16.9106209,0 16.901586,0 L16.898806,0.000694991687 C16.0008768,0.011119867 15.2565407,0.336375978 14.5393093,0.900709226 C13.8331977,1.45670258 13.1263912,2.65764821 12.4668441,4.2721139 C11.7232029,6.09090715 7.20158703,15.1605487 0.00494810921,19.8329778 C-0.0798408766,21.6093765 0.925812095,23.3850803 2.96352772,23.577593 C4.81846054,23.7534259 6.13546978,22.9715602 7.83124949,21.8324689 C7.70406601,22.3988871 7.58661242,22.9284707 7.47958371,23.41288 C7.35309522,23.9848581 7.24537152,24.4783022 7.15919254,24.8765325 C7.02992408,25.4693604 6.94791507,25.8509108 6.92359036,25.9565495 C6.68798818,27.0372616 6.5198002,28.0637642 6.41068648,29.0381428 C5.39599862,38.1084791 9.60000334,42.5842256 14.5233245,42.5842256 C15.3461946,42.5842256 16.1614199,42.4862319 16.9710852,42.2805144 C22.3954953,40.9051258 27.6176629,34.6828652 33.7989189,20.3590865 C33.7050951,21.9172579 33.6953651,23.3725704 33.7627794,24.7229393 C34.1700444,32.932181 37.4170457,35.3952317 42.0046856,35.3952317 C45.4740842,35.3952317 48.7231703,33.5847784 50.3751656,31.3343952 C51.5872311,29.7428643 52.0827602,27.9866202 52.0827602,26.6147067 C52.0827602,25.5499794 51.7449943,24.7000046 51.2077656,24.2684147" id="Fill-4" fill="#EA5252"></path>
        </g>
    </g>
</svg>