<svg width="91" height="41" viewBox="0 0 91 41" fill="none" xmlns="http://www.w3.org/2000/svg">
<g clip-path="url(#clip0_1747_3859)">
<path d="M38.2202 19.0764C37.6382 20.1312 37.0258 21.1707 36.4814 22.2442C35.6604 23.8648 34.8241 25.4818 34.1088 27.1489C33.1651 29.347 32.3646 31.6078 31.4379 33.8139C30.8828 35.1336 29.8558 35.943 28.4 36.1508C27.0077 36.3486 25.62 36.585 24.2241 36.7542C23.1058 36.8903 21.9804 36.9789 20.8558 37.0398C18.8081 37.1518 16.7587 37.2279 14.7101 37.3183C14.0574 37.3469 13.4047 37.3845 12.7511 37.4025C11.4412 37.4392 10.1313 37.4553 8.82232 37.4991C7.47124 37.5457 6.12016 37.603 4.76997 37.6782C4.14323 37.714 3.72062 37.4204 3.38039 36.9494C2.83064 36.1866 2.64352 35.3029 2.57995 34.3896C2.44922 32.5094 2.33641 30.6291 2.21285 28.7489C2.1278 27.4614 2.03378 26.1739 1.94962 24.8864C1.82427 22.9166 1.70698 20.9468 1.58611 18.9771C1.52791 18.0432 1.4724 17.1103 1.40704 16.1773C1.29333 14.5057 1.17067 12.8332 1.05875 11.1634C1.01756 10.5366 0.991598 9.91703 0.963842 9.29386C0.902063 7.92756 0.819692 6.56305 0.79104 5.19675C0.769552 4.17337 1.42584 3.20549 2.23703 3.15177C2.77871 3.11685 3.35174 3.26907 3.88357 3.42844C6.31803 4.15815 8.74263 4.92367 11.1735 5.66681C15.0369 6.85136 18.9129 7.99471 22.7629 9.22224C25.0702 9.95821 27.3533 10.7775 29.6186 11.6397C31.857 12.4876 34.0613 13.4232 36.2719 14.3409C36.8778 14.5858 37.4637 14.8777 38.0241 15.2139C39.1666 15.9096 39.4379 16.7217 39.0162 17.9617C38.3661 17.8024 37.6928 17.7057 37.0724 17.4702C35.6398 16.9267 34.2368 16.3062 32.8132 15.7431C32.6565 15.6804 32.4443 15.7565 32.2572 15.7681C32.336 15.932 32.3727 16.1513 32.5007 16.248C32.8111 16.481 33.144 16.6822 33.4945 16.8488C35.0659 17.6 36.6444 18.3333 38.2202 19.0764ZM20.3625 26.6815C20.3786 26.7584 20.3899 26.8361 20.3965 26.9143C20.3851 28.3164 20.372 29.7192 20.3571 31.1225C20.3499 31.8531 20.315 32.5846 20.3472 33.3125C20.3652 33.6948 20.5326 34.0476 20.9991 34.0995C21.5927 34.1667 21.966 33.7539 21.8667 33.1066C21.7825 32.5622 21.5748 32.025 21.5649 31.4824C21.5327 29.6505 21.5595 27.8168 21.5837 25.985C21.5837 25.8587 21.7288 25.7011 21.8523 25.617C22.4504 25.1979 23.053 24.7834 23.6717 24.3957C25.7847 23.0724 27.955 21.8574 30.2973 20.9818C30.6343 20.863 30.9588 20.7113 31.266 20.5287C31.6582 20.2825 31.7934 19.8912 31.6045 19.6226C31.36 19.2761 30.9992 19.2645 30.642 19.4006C30.3241 19.525 30.0331 19.7184 29.7162 19.8482C29.5085 19.9315 29.1646 20.0613 29.0787 19.9754C28.9184 19.8142 28.8432 19.5116 28.836 19.2645C28.8146 18.5052 28.8531 17.7424 28.8459 16.9849C28.8459 16.6635 28.8665 16.3027 28.4878 16.1325C28.0866 15.9535 27.7715 16.1549 27.459 16.3797C27.3722 16.4382 27.2944 16.5091 27.228 16.5901C26.9594 16.9482 26.6093 17.0476 26.1706 17.0306C25.5644 17.0064 25.1803 17.2857 25.1302 17.8507C25.0308 18.9636 24.995 20.0819 24.944 21.1993C24.9314 21.4679 25.0899 21.6157 25.3666 21.5942C25.6076 21.5789 25.8327 21.469 25.9929 21.2883C26.1531 21.1077 26.2354 20.871 26.2216 20.6299C26.2154 20.2574 26.1787 19.8814 26.2154 19.5125C26.2879 18.7864 26.3327 18.0325 27.014 17.5561C27.1456 17.4666 27.3623 17.3556 27.4706 17.4048C27.579 17.4541 27.6613 17.6931 27.6605 17.848C27.6605 18.4748 27.6005 19.1015 27.6023 19.7283C27.6023 20.0864 27.6802 20.4374 27.7321 20.8725L21.5837 24.4539C21.6169 23.7905 21.6348 23.2425 21.6733 22.6963C21.7449 21.6846 21.8443 20.6755 21.8944 19.6629C21.9034 19.4838 21.7529 19.157 21.6365 19.1382C21.3836 19.1028 21.1268 19.167 20.9203 19.3173C20.7681 19.4444 20.7134 19.7345 20.6884 19.9611C20.5988 20.7767 20.5487 21.596 20.4654 22.4116C20.4332 22.7357 20.4242 23.0966 20.2702 23.3625C20.1458 23.5765 19.8226 23.6723 19.5808 23.82C19.468 23.6024 19.2406 23.3723 19.2612 23.1682C19.3588 22.2164 19.3167 21.2065 20.0921 20.4562C20.1477 20.4056 20.1841 20.3372 20.195 20.2628C20.2013 20.107 20.2335 19.9046 20.1503 19.8097C20.067 19.7148 19.8441 19.7327 19.7142 19.7829C19.4272 19.8923 19.1664 20.0609 18.9489 20.2778C18.7314 20.4947 18.562 20.755 18.4518 21.0417C18.0686 21.9756 18.0238 22.9533 18.0722 23.9445C18.1187 24.8926 18.6649 25.283 19.5781 25.0001C19.8405 24.9186 20.0894 24.7906 20.3481 24.6813C20.4798 25.129 20.3311 25.3842 19.981 25.6474C18.1904 26.9904 16.405 28.3335 14.6672 29.7436C13.7082 30.5199 12.8335 31.4036 11.9534 32.2712C11.6185 32.6025 11.6516 33.0036 11.9229 33.2731C12.17 33.5193 12.6177 33.5274 12.9436 33.2489C13.288 32.9629 13.6106 32.6516 13.9088 32.3178C15.6368 30.3202 17.6281 28.6191 19.7662 27.08C19.9452 26.943 20.1333 26.8311 20.3625 26.6815V26.6815ZM7.88757 22.768L8.04694 22.7814C8.08097 22.9345 8.12216 23.0867 8.14723 23.2407C8.5943 25.9017 9.03989 28.563 9.48398 31.2245C9.5377 31.5469 9.61112 31.8576 10.0301 31.8629C10.4492 31.8683 10.5879 31.5782 10.6408 31.2281C10.7321 30.6241 10.8175 30.0188 10.8968 29.4124C11.4045 25.4871 12.1253 21.6085 13.3868 17.8444C13.9947 16.0332 14.5364 14.1914 15.9609 12.7983C16.0004 12.7533 16.0327 12.7026 16.0567 12.6478C16.2842 12.227 16.208 11.7973 15.8517 11.4731C15.5258 11.1777 15.0002 11.1213 14.66 11.4105C14.4335 11.6007 14.2521 11.839 14.1291 12.1079C12.4834 15.9132 11.2559 19.8464 10.5477 23.9373C10.3919 24.8398 10.245 25.745 10.0937 26.6493C9.99705 26.5466 9.9345 26.4165 9.91464 26.2768C9.72931 25.1738 9.55024 24.0707 9.36669 22.9641C9.20463 21.9935 9.04616 21.022 8.87156 20.0542C8.81247 19.7265 8.63071 19.4059 8.26989 19.4516C8.0371 19.4811 7.71208 19.6942 7.63598 19.8993C7.06296 21.467 6.54007 23.0536 6.00555 24.6357C5.90975 24.9186 6.00555 25.1362 6.28042 25.257C6.57768 25.386 6.81763 25.2848 6.96536 25.0198C7.08869 24.7648 7.1972 24.5029 7.29038 24.2355C7.48974 23.749 7.6888 23.2598 7.88757 22.768V22.768ZM15.1632 24.3948H15.0987C15.0987 24.8559 15.0933 25.317 15.0987 25.7781C15.1059 26.2545 15.3816 26.4192 15.8069 26.1963C16.2063 25.9859 16.4113 25.6671 16.4202 25.1917C16.4444 23.9839 16.2851 22.7071 17.5842 21.9335C17.6997 21.8646 17.7051 21.4634 17.6343 21.2611C17.5367 20.9782 17.2681 21.0346 17.0246 21.1313C16.7382 21.2512 16.4449 21.3541 16.1463 21.4393C15.5777 21.5906 15.3288 21.8717 15.2858 22.4779C15.2447 23.1163 15.2053 23.7555 15.1632 24.3948V24.3948ZM12.7726 25.5382H12.7842C12.7654 25.8068 12.7439 26.0754 12.7296 26.344C12.7153 26.6126 12.6956 26.8812 12.6956 27.1498C12.6956 27.5751 12.9311 27.7067 13.3116 27.5079C13.659 27.3235 13.89 27.0764 13.916 26.6448C13.9473 26.1408 14.0494 25.6403 14.1004 25.1371C14.1711 24.4405 14.249 23.743 14.275 23.0437C14.2956 22.4958 14.0064 22.3597 13.531 22.6399C13.0555 22.9202 12.9284 23.3562 12.8872 23.8504C12.8406 24.4074 12.8102 24.9732 12.7726 25.5382V25.5382ZM24.1247 18.6019L24.2143 18.5697C24.1292 18.396 24.0755 18.1095 23.951 18.0746C23.848 18.0561 23.7422 18.0619 23.6418 18.0915C23.5414 18.121 23.4493 18.1734 23.3726 18.2447C23.1804 18.4616 23.0529 18.728 23.0046 19.0138C22.8775 19.9852 22.7942 20.9629 22.7208 21.9407C22.7038 22.1681 22.7924 22.4036 22.8327 22.6355C23.0924 22.5611 23.3905 22.5406 23.6 22.3937C23.763 22.2782 23.8848 22.0114 23.9045 21.801C23.9976 20.7355 24.054 19.6674 24.1247 18.6019ZM14.8131 20.0828C14.805 19.765 14.634 19.6092 14.3654 19.7095C13.9724 19.8518 13.6563 20.0963 13.5435 20.5269C13.4647 20.826 13.6169 20.9952 13.9016 21.0167C14.1864 21.0382 14.8247 20.3747 14.8167 20.0819L14.8131 20.0828ZM23.8848 16.9008C24.2277 16.8596 24.4327 16.5587 24.601 16.2427C24.7801 15.9078 24.5509 15.581 24.2026 15.7099C23.8975 15.8432 23.6367 16.0606 23.4505 16.3367C23.258 16.6124 23.4729 16.8945 23.8848 16.9008Z" fill="#E3E1DF"/>
<path d="M38.2209 19.077C36.6451 18.3366 35.0666 17.6006 33.4962 16.8494C33.1457 16.6828 32.8127 16.4816 32.5023 16.2486C32.3743 16.1519 32.3376 15.9325 32.2588 15.7687C32.4459 15.7571 32.6581 15.6792 32.8148 15.7436C34.2384 16.3095 35.6414 16.9273 37.074 17.4708C37.6945 17.7062 38.3678 17.8029 39.0178 17.9623C39.8487 18.1163 40.6778 18.2775 41.5104 18.4198C41.8632 18.4798 42.2267 18.4646 42.5759 18.5479C43.0737 18.6678 43.3011 18.4583 43.5357 18.0348C45.09 15.2297 46.6694 12.438 48.5622 9.8397C48.9205 9.363 49.3042 8.906 49.7118 8.47072C49.8879 8.28872 50.0893 8.13311 50.3099 8.00872C50.4424 7.91993 50.6017 7.88029 50.7603 7.89664C50.9189 7.91299 51.0668 7.98431 51.1784 8.09825C51.4327 8.33373 51.5195 8.6462 51.3458 8.95331C50.8767 9.78419 50.3878 10.6034 49.8981 11.4209C48.564 13.6479 47.2284 15.8729 45.8914 18.0957C45.7866 18.2694 45.7033 18.4539 45.5726 18.7081C46.0472 18.7081 46.4411 18.7162 46.836 18.7081C52.5313 18.572 57.6858 16.8807 62.1572 13.2966C63.8386 11.9536 65.2757 10.3805 66.0681 8.32388C66.9867 5.94315 66.1075 3.91877 63.7509 2.98671C63.3753 2.84157 62.9884 2.72777 62.5941 2.64647C60.5187 2.20506 58.4639 2.42174 56.4341 2.91508C53.5815 3.61345 50.8615 4.65026 48.6159 6.60212C47.5415 7.53507 46.6309 8.66143 45.6657 9.71077C45.2763 10.137 45.0865 10.2292 44.5403 10.0107C44.1666 9.86081 43.8029 9.68705 43.4515 9.49052C42.9564 9.21296 42.7666 8.80916 42.9734 8.28538C43.1371 7.874 43.374 7.49571 43.6727 7.16888C44.9504 5.78109 46.4984 4.75144 48.1602 3.87757C51.0423 2.36175 54.0283 1.14049 57.2704 0.65432C59.7585 0.28275 62.2386 0.220974 64.6418 1.14408C67.4048 2.20507 68.6905 4.51059 68.0665 7.37481C67.8822 8.21961 67.5981 9.03953 67.2204 9.81732C65.9731 12.3816 64.0526 14.3926 61.7928 16.0848C58.5471 18.5129 54.9281 20.1129 50.925 20.7737C48.9418 21.1014 46.9371 20.9716 44.9486 20.7083C44.6737 20.6725 44.5125 20.7083 44.3899 20.9769C42.4192 25.4322 40.6455 29.96 39.7332 34.7635C39.4538 36.231 39.4699 37.7549 39.3517 39.2537C39.3464 39.3271 39.3517 39.4023 39.3517 39.4766C39.3517 40.2601 38.8396 40.6182 38.135 40.2619C36.3147 39.3397 35.3853 37.9787 35.4758 36.0331C35.5429 34.5791 36.0076 33.2244 36.5502 31.8957C38.0365 28.2418 39.9033 24.7732 41.7432 21.2939C41.9035 20.9904 42.0638 20.6869 42.2213 20.3824C42.2281 20.3552 42.2299 20.327 42.2267 20.2992L38.2209 19.077Z" fill="#1E8EA8"/>
<path d="M81.2451 31.6196C80.9727 31.8687 80.7746 32.1884 80.673 32.5432C80.5713 32.8981 80.5701 33.2742 80.6694 33.6297C80.8404 34.3155 81.4305 34.6011 82.068 34.731C83.1818 34.9584 84.2347 34.6737 85.2375 34.2188C86.5465 33.6261 87.5896 32.6538 88.6488 31.7119C88.938 31.4549 89.22 31.1881 89.5056 30.9257C89.7133 30.735 89.981 30.6213 90.17 30.8622C90.2864 31.0108 90.3007 31.3098 90.247 31.505C90.1932 31.7002 90.0213 31.8936 89.8602 32.0422C88.6067 33.191 87.3783 34.3701 86.0773 35.4598C84.6036 36.6963 82.9078 37.2935 80.9371 37.0589C78.4176 36.758 76.9475 34.8984 77.2886 32.3771C77.5796 30.2283 78.6173 28.4098 79.8179 26.6666C80.8924 25.1069 82.1056 23.6779 83.779 22.7225C84.8713 22.0958 86.0317 21.76 87.2959 22.1039C89.1126 22.5981 89.9819 24.1345 89.4349 25.9351C88.9281 27.6049 87.9226 28.9703 86.6692 30.1522C86.1962 30.5853 85.6869 30.9771 85.1471 31.3233C83.9177 32.1353 82.6186 32.301 81.2451 31.6196ZM86.6763 24.849C86.0773 24.8436 85.6297 25.1722 85.2142 25.5411C84.0583 26.5708 83.12 27.7848 82.2837 29.0777C82.1459 29.3079 82.0427 29.5571 81.9775 29.8173C81.8486 30.2784 82.0053 30.5407 82.444 30.7377C82.9902 30.983 83.4737 30.7861 83.9321 30.5246C85.6332 29.5541 86.7291 28.057 87.5341 26.3165C87.586 26.1926 87.6192 26.0616 87.6325 25.9279C87.7221 25.2277 87.3792 24.8427 86.6763 24.849V24.849Z" fill="#1E8EA8"/>
<path d="M67.507 37.8963C66.2982 37.8676 65.0895 37.6706 64.0491 36.8872C62.6166 35.8038 62.5091 34.2253 63.8593 33.0471C65.2919 31.7936 67.0056 31.2617 68.9037 31.354C69.1566 31.3682 69.4039 31.4347 69.6298 31.5491C69.9387 31.7058 70.0632 32.004 69.988 32.3451C69.9154 32.6648 69.6522 32.7203 69.3612 32.74C68.5894 32.7937 67.8132 32.8214 67.0485 32.9316C66.3144 33.0372 65.719 33.4392 65.2578 34.0221C64.6221 34.8172 64.8612 35.7376 65.8336 36.0402C66.26 36.1718 66.7096 36.2112 67.1524 36.1557C68.9145 35.9176 70.4267 35.1708 71.562 33.766C72.0294 33.1903 72.3409 32.5313 72.3598 31.7649C72.3759 31.1176 72.1037 30.6126 71.519 30.3574C71.0328 30.1452 70.5028 30.0288 69.9862 29.8883C69.5698 29.7755 69.1392 29.7092 68.7264 29.5865C67.6744 29.2705 67.2634 28.5578 67.5437 27.4914C67.8758 26.2254 68.5518 25.1322 69.3979 24.1554C70.741 22.6073 72.2783 21.3359 74.3573 20.9079C75.2652 20.7072 76.2093 20.7408 77.1006 21.0055C78.7051 21.4962 79.3605 22.8446 78.6693 24.3765C78.2019 25.4142 77.4256 26.2335 76.4613 26.8423C75.8812 27.2085 75.2267 27.1467 74.5981 26.9533C74.1907 26.8271 74.0779 26.4716 74.3295 26.0965C74.5193 25.8153 74.7772 25.5825 75.0019 25.3211C75.386 24.8672 75.7898 24.4258 76.1363 23.9432C76.3843 23.5993 76.541 23.1633 76.3002 22.7676C76.0593 22.3718 75.6206 22.3199 75.1846 22.3485C74.3009 22.4121 73.4763 22.6718 72.7788 23.2197C71.8078 23.969 70.9767 24.8837 70.3237 25.9219C69.6451 27.0196 70.0551 27.9534 71.3176 28.2238C71.8127 28.3295 72.3213 28.3733 72.8173 28.4763C74.7924 28.8891 75.66 30.1461 75.2813 32.1266C74.8336 34.4546 73.3428 35.9722 71.3149 37.0153C70.1456 37.6169 68.8742 37.8775 67.507 37.8963Z" fill="#1E8EA8"/>
<path d="M51.5458 32.1979C51.3327 32.3331 51.202 32.4172 51.0704 32.4996C49.337 33.574 47.6161 34.6753 45.8621 35.7184C45.3849 36.0022 44.8217 36.1768 44.2756 36.3004C43.3802 36.5036 42.9119 36.0801 43.0964 35.183C43.2652 34.3524 43.5215 33.5421 43.861 32.7655C44.7635 30.7205 45.7654 28.7185 46.6635 26.6718C47.3314 25.1497 48.6565 24.7271 50.09 24.4424C50.2628 24.4083 50.5537 24.48 50.6343 24.6044C50.7149 24.7289 50.6818 25.0297 50.5833 25.1765C50.209 25.7317 49.799 26.2635 49.3835 26.7882C48.0481 28.4547 46.9498 30.2981 46.12 32.2659C46.0403 32.4575 45.9364 32.6554 45.9221 32.856C45.9078 33.0565 45.9221 33.3708 46.0484 33.4594C46.2006 33.5669 46.5265 33.5731 46.7011 33.48C47.6609 32.9706 48.6395 32.4781 49.5331 31.8684C51.1877 30.7376 52.434 29.1743 53.709 27.6602C54.889 26.2563 56.0136 24.8059 57.1937 23.402C57.6028 22.9149 58.089 22.4896 58.5698 22.0661C59.0506 21.6426 59.6326 21.5378 60.2378 21.5244C60.3963 21.5244 60.5575 21.6328 60.7177 21.6918C60.6595 21.8351 60.6282 21.9998 60.5387 22.1189C59.1957 23.8908 57.9108 25.7003 56.8677 27.6701C55.7593 29.7652 54.8819 31.9427 54.7332 34.3458C54.6929 34.9958 54.7959 35.6539 54.7861 36.3075C54.7861 36.5278 54.6965 36.8582 54.5443 36.9441C54.0698 37.2073 53.5594 37.4509 53.0321 37.5655C52.3597 37.7114 51.8305 37.3864 51.6694 36.7104C51.5082 36.0344 51.4616 35.302 51.4384 34.5929C51.4187 34.045 51.51 33.4934 51.5431 32.9428C51.5565 32.7279 51.5458 32.5112 51.5458 32.1979Z" fill="#1E8EA8"/>
<path d="M57.8994 33.8349C57.9111 32.928 58.2987 31.978 58.7948 31.0674C60.0241 28.7879 61.6097 26.7501 63.1918 24.7158C66.3739 20.6339 69.6383 16.6192 73.2197 12.8811C73.919 12.1514 74.697 11.4951 75.4518 10.8218C75.6388 10.6499 75.8566 10.5151 76.0938 10.4243C76.246 10.3687 76.4457 10.4449 76.6238 10.4619C76.5844 10.623 76.5925 10.82 76.4976 10.9382C76.0577 11.4629 75.6014 11.9744 75.1286 12.4728C72.6467 15.0935 70.1487 17.7061 68.0554 20.6536C65.3559 24.4517 62.8856 28.3966 61.2122 32.7722C60.7314 34.0257 60.4879 35.3794 60.1503 36.6902C60.042 37.1101 59.8656 37.2274 59.5433 36.9705C58.5897 36.2085 57.9093 35.2836 57.8994 33.8349Z" fill="#1E8EA8"/>
<path d="M20.3621 26.682C20.1329 26.8315 19.9476 26.9435 19.7721 27.0697C17.634 28.6088 15.6428 30.31 13.9147 32.3075C13.6165 32.6414 13.2939 32.9526 12.9496 33.2387C12.6236 33.5171 12.176 33.5073 11.9289 33.2628C11.6603 32.9942 11.6244 32.5922 11.9593 32.2609C12.8394 31.3933 13.7142 30.5096 14.6731 29.7334C16.411 28.3259 18.1981 26.9793 19.987 25.6371C20.3371 25.3739 20.4857 25.1178 20.3541 24.6711C20.0953 24.7803 19.8464 24.9083 19.5841 24.9898C18.6708 25.2727 18.1247 24.8824 18.0781 23.9342C18.0298 22.943 18.0781 21.9644 18.4577 21.0315C18.5679 20.7447 18.7373 20.4844 18.9548 20.2675C19.1723 20.0506 19.4331 19.882 19.7202 19.7726C19.85 19.7225 20.0837 19.7198 20.1562 19.7995C20.2287 19.8791 20.2073 20.0967 20.201 20.2525C20.1901 20.3269 20.1537 20.3953 20.098 20.4459C19.3226 21.1962 19.3647 22.2062 19.2671 23.1579C19.2465 23.3621 19.474 23.5922 19.5868 23.8097C19.824 23.662 20.1517 23.5662 20.2762 23.3522C20.4302 23.0836 20.4391 22.7255 20.4714 22.4013C20.5546 21.5857 20.6048 20.7664 20.6943 19.9508C20.7194 19.7243 20.774 19.4342 20.9262 19.307C21.1327 19.1567 21.3896 19.0925 21.6425 19.128C21.7589 19.1468 21.9111 19.4727 21.9004 19.6526C21.8502 20.6653 21.7508 21.6743 21.6792 22.6861C21.6407 23.2322 21.6228 23.7802 21.5897 24.4436L27.738 20.8622C27.6861 20.4271 27.6091 20.0725 27.6082 19.718C27.6082 19.0912 27.6646 18.4645 27.6664 17.8378C27.6664 17.6829 27.5876 17.4456 27.4766 17.3946C27.3656 17.3435 27.1516 17.4536 27.02 17.5459C26.3386 18.0222 26.2938 18.7761 26.2213 19.5022C26.1846 19.8711 26.2213 20.2471 26.2276 20.6196C26.2413 20.8607 26.1591 21.0974 25.9989 21.2781C25.8387 21.4587 25.6135 21.5687 25.3725 21.5839C25.0959 21.6054 24.9374 21.4612 24.9499 21.189C25.0009 20.0716 25.0395 18.9507 25.1361 17.8404C25.1863 17.2755 25.5704 16.9961 26.1765 17.0203C26.6153 17.0373 26.9653 16.9352 27.234 16.5798C27.3003 16.4988 27.3782 16.4279 27.465 16.3694C27.773 16.1446 28.0917 15.9405 28.4937 16.1223C28.868 16.2924 28.8447 16.6532 28.8518 16.9746C28.859 17.7348 28.8205 18.4967 28.842 19.2542C28.8492 19.5013 28.9244 19.8039 29.0846 19.9651C29.1742 20.0546 29.5144 19.9212 29.7221 19.838C30.0391 19.7108 30.3301 19.5174 30.6479 19.3903C31.0061 19.2497 31.3642 19.2658 31.6104 19.6123C31.7993 19.8809 31.6641 20.2722 31.272 20.5184C30.9648 20.701 30.6403 20.8527 30.3032 20.9715C27.9583 21.8471 25.788 23.0621 23.6776 24.3854C23.0589 24.7731 22.4564 25.1913 21.8583 25.6067C21.7383 25.6909 21.595 25.8484 21.5897 25.9747C21.5655 27.8066 21.5386 29.6402 21.5709 31.4721C21.5807 32.0147 21.7884 32.5519 21.8726 33.0963C21.972 33.7436 21.5986 34.1564 21.005 34.0892C20.5385 34.0373 20.3711 33.6845 20.3532 33.3022C20.321 32.5743 20.3532 31.8428 20.363 31.1122C20.3762 29.7101 20.3893 28.3074 20.4024 26.9041C20.3934 26.8293 20.3799 26.7552 20.3621 26.682V26.682Z" fill="#952934"/>
<path d="M7.88904 22.7678C7.69147 23.2596 7.493 23.7509 7.29363 24.2415C7.20046 24.509 7.09194 24.7709 6.96862 25.0258C6.82358 25.2944 6.58094 25.392 6.28368 25.2631C6.00523 25.1422 5.91301 24.9247 6.00881 24.6417C6.54602 23.0596 7.06622 21.4731 7.63924 19.9053C7.71534 19.6985 8.04035 19.4854 8.27315 19.4577C8.63129 19.412 8.81573 19.7325 8.87482 20.0602C9.05389 21.0281 9.20789 21.9996 9.36995 22.9701C9.55349 24.0723 9.73256 25.1754 9.9179 26.2829C9.93776 26.4226 10.0003 26.5526 10.097 26.6554C10.2483 25.7511 10.3951 24.8459 10.5509 23.9434C11.2618 19.8462 12.4849 15.9157 14.1269 12.1077C14.25 11.8388 14.4314 11.6005 14.6579 11.4103C14.9981 11.1211 15.5237 11.1775 15.8496 11.4729C16.2077 11.7971 16.282 12.2268 16.0546 12.6476C16.0306 12.7024 15.9983 12.7531 15.9588 12.7981C14.5343 14.1912 13.9891 16.0329 13.3847 17.8442C12.1231 21.6047 11.4024 25.4869 10.8947 29.4121C10.8159 30.018 10.7306 30.6233 10.6387 31.2279C10.5858 31.578 10.4524 31.8681 10.028 31.8627C9.60363 31.8573 9.53559 31.5467 9.48187 31.2243C9.03658 28.5622 8.591 25.9009 8.14511 23.2405C8.12004 23.0865 8.07886 22.9343 8.04483 22.7812L7.88904 22.7678Z" fill="#952934"/>
<path d="M15.1629 24.3951C15.2049 23.7558 15.2443 23.1165 15.2909 22.4782C15.3339 21.872 15.5828 21.5909 16.1513 21.4395C16.4499 21.3543 16.7432 21.2515 17.0297 21.1315C17.2732 21.0349 17.5418 20.9784 17.6394 21.2614C17.7101 21.4637 17.7048 21.8648 17.5893 21.9338C16.2865 22.7074 16.4459 23.9841 16.4253 25.192C16.4164 25.6674 16.2113 25.9861 15.812 26.1965C15.3867 26.4195 15.1109 26.2547 15.1038 25.7784C15.0966 25.3173 15.1038 24.8562 15.1038 24.3951H15.1629Z" fill="#952934"/>
<path d="M12.7743 25.5384C12.8119 24.9735 12.8423 24.4076 12.8889 23.8435C12.9301 23.352 13.0679 22.9079 13.5326 22.633C13.9973 22.3582 14.2973 22.4889 14.2767 23.0368C14.2507 23.7361 14.1728 24.4336 14.1021 25.1302C14.051 25.6333 13.949 26.1338 13.9176 26.6379C13.8917 27.0695 13.6607 27.3166 13.3133 27.501C12.9327 27.7034 12.6982 27.5718 12.6973 27.1429C12.6973 26.8743 12.7161 26.6057 12.7313 26.3371C12.7465 26.0685 12.7671 25.7999 12.7859 25.5313L12.7743 25.5384Z" fill="#952934"/>
<path d="M24.1235 18.6021C24.0528 19.6685 23.9964 20.7366 23.8997 21.8012C23.88 22.0116 23.7582 22.2784 23.5952 22.3939C23.3857 22.5407 23.0876 22.5613 22.8279 22.6356C22.7876 22.4037 22.699 22.1683 22.716 21.9409C22.7894 20.9631 22.8727 19.9854 22.9998 19.014C23.0481 18.7282 23.1756 18.4617 23.3678 18.2449C23.4445 18.1736 23.5366 18.1212 23.637 18.0916C23.7374 18.0621 23.8432 18.0563 23.9462 18.0747C24.0707 18.1097 24.1253 18.3962 24.2095 18.5699L24.1235 18.6021Z" fill="#952934"/>
<path d="M14.8164 20.082C14.8244 20.3748 14.195 21.0391 13.9013 21.0158C13.6077 20.9925 13.4662 20.8251 13.5432 20.5261C13.656 20.0954 13.9721 19.851 14.3651 19.7086C14.6418 19.6083 14.8083 19.7659 14.8164 20.082Z" fill="#952934"/>
<path d="M23.8857 16.9012C23.4703 16.8923 23.259 16.6102 23.4497 16.3345C23.6358 16.0584 23.8967 15.841 24.2018 15.7077C24.55 15.5788 24.7775 15.9056 24.6002 16.2405C24.4372 16.5619 24.2322 16.8627 23.8857 16.9012Z" fill="#952934"/>
</g>
<defs>
<clipPath id="clip0_1747_3859">
<rect width="89.4866" height="40" fill="white" transform="translate(0.790527 0.400024)"/>
</clipPath>
</defs>
</svg>
